/* XPM */
static char * stock_bottom_xpm[] = {
"24 24 91 1",
" 	c None",
".	c #010101",
"+	c #060606",
"@	c #030303",
"#	c #000000",
"$	c #0B0B0B",
"%	c #0E0E0E",
"&	c #090909",
"*	c #DBDCD9",
"=	c #EEEEED",
"-	c #F5F5F5",
";	c #F4F4F4",
">	c #EFEFEE",
",	c #A7BE9C",
"'	c #9EB793",
")	c #9CB690",
"!	c #9BB48F",
"~	c #8FA983",
"{	c #738F65",
"]	c #E0E0DF",
"^	c #EAE8E9",
"/	c #EEECEE",
"(	c #EFECEE",
"_	c #EFECEF",
":	c #8DAE7E",
"<	c #8CAE7E",
"[	c #8CAE7D",
"}	c #8AAB7D",
"|	c #7D996F",
"1	c #D6D7D4",
"2	c #EDEDED",
"3	c #F4F0F4",
"4	c #F5F1F5",
"5	c #8AAD7A",
"6	c #8EAF7F",
"7	c #8FAB81",
"8	c #6A885C",
"9	c #E5E5E4",
"0	c #F2F0F2",
"a	c #F6F2F6",
"b	c #8BAE7B",
"c	c #86A876",
"d	c #739365",
"e	c #D6D7D3",
"f	c #EEEDED",
"g	c #F2EFF2",
"h	c #90B082",
"i	c #8AA67B",
"j	c #E3E3E2",
"k	c #F2F0F1",
"l	c #F3F0F3",
"m	c #8BAD7C",
"n	c #8CAC7F",
"o	c #719062",
"p	c #D2D4D0",
"q	c #EDECEC",
"r	c #EFEDEF",
"s	c #8EAE80",
"t	c #8AA57E",
"u	c #678459",
"v	c #E2E2E0",
"w	c #F0EFEF",
"x	c #89A67A",
"y	c #6D8B5F",
"z	c #CDCFCB",
"A	c #DEDFDD",
"B	c #7C996E",
"C	c #637F55",
"D	c #BBC0B8",
"E	c #678558",
"F	c #A3AC9E",
"G	c #5F7B52",
"H	c #070707",
"I	c #040404",
"J	c #E5E7E5",
"K	c #E3E3E1",
"L	c #E1E1E0",
"M	c #DFE0DE",
"N	c #D9DAD8",
"O	c #8DAC7F",
"P	c #8EAD80",
"Q	c #8CAB7E",
"R	c #7E9D6E",
"S	c #080808",
"T	c #E9EBE8",
"U	c #D5D6D4",
"V	c #D4D5D2",
"W	c #D3D4D1",
"X	c #83A574",
"Y	c #84A676",
"Z	c #7C9C6C",
"                        ",
"                        ",
"                        ",
"                        ",
"     .+@####+$%+++#     ",
"     &*=--;>,')!~{#     ",
"      @]^/(_:<[}|#      ",
"      #1234455678#      ",
"       #903ab5cd#       ",
"       #efg45hi8#       ",
"        @jklmno#        ",
"        #pqrstu#        ",
"         #vwxy#         ",
"         #zABC#         ",
"          #DE#          ",
"          #FG#          ",
"           ##           ",
"     #.HIIII.######     ",
"     $JKLLMNOPPQRd#     ",
"     STUVVVWXXXYZd#     ",
"     #%+###########     ",
"                        ",
"                        ",
"                        "};
